{"title":"Tere Jeya Sona (Breathless) - Miss Pooja - New Punjabi Album - 7","uid":6928637,"size":85747895,"categoryP":"video","categoryS":"music_videos","magnet":"?xt=urn:btih:c4e742de4c371d319086449d64f842c31d22b77a&amp;dn=Tere+Jeya+Sona+%28Breathless%29+-+Miss+Pooja+-+New+Punjabi+Album+-+7&amp;tr=udp%3A%2F%2Ftracker.openbittorrent.com%3A80&amp;tr=udp%3A%2F%2Fopen.demonii.com%3A1337&amp;tr=udp%3A%2F%2Ftracker.coppersurfer.tk%3A6969&amp;tr=udp%3A%2F%2Fexodus.desync.com%3A6969","seeders":1,"leechers":0,"uploader":"AbhiHKRG","files":6,"time":1325589694,"description":"Info ::\nFormat                           : AVI\nFormat/Info                      : Audio Video Interleave\nFile size                        : 81.8 MiB\nDuration                         : 3mn 34s\nOverall bit rate                 : 3 191 Kbps\n\n\nVideo Info ::\nID                               : 0\nFormat                           : AVC\nFormat/Info                      : Advanced Video Codec\nFormat profile                   : &lt;a class=&quot;__cf_email__&quot; href=&quot;/cdn-cgi/l/email-protection&quot; data-cfemail=&quot;db93b2bcb39b97eef5ea&quot;&gt;[email&amp;#160;protected]&lt;/a&gt;&lt;script cf-hash='f9e31' type=&quot;text/javascript&quot;&gt;\n/* &lt;![CDATA[ */!function(){try{var t=&quot;currentScript&quot;in document?document.currentScript:function(){for(var t=document.getElementsByTagName(&quot;script&quot;),e=t.length;e--;)if(t[e].getAttribute(&quot;cf-hash&quot;))return t[e]}();if(t&amp;&amp;t.previousSibling){var e,r,n,i,c=t.previousSibling,a=c.getAttribute(&quot;data-cfemail&quot;);if(a){for(e=&quot;&quot;,r=parseInt(a.substr(0,2),16),n=2;a.length-n;n+=2)i=parseInt(a.substr(n,2),16)^r,e+=String.fromCharCode(i);e=document.createTextNode(e),c.parentNode.replaceChild(e,c)}}}catch(u){}}();/* ]]&gt; */&lt;/script&gt;\nFormat settings, CABAC           : Yes\nFormat settings, ReFrames        : 2 frames\nCodec ID                         : H264\nDuration                         : 10s 0ms\nBit rate                         : 2 988 Kbps\nWidth                            : 1 280 pixels\nHeight                           : 720 pixels\nDisplay aspect ratio             : 16:9\nFrame rate                       : 30.000 fps\nColor space                      : YUV\nChroma subsampling               : 4:2:0\nBit depth                        : 8 bits\nScan type                        : Progressive\nBits/(Pixel*Frame)               : 0.108\nStream size                      : 76.6 MiB (94%)\n\n\nAudio Info ::\nID                               : 1\nFormat                           : MPEG Audio\nFormat version                   : Version 1\nFormat profile                   : Layer 3\nCodec ID                         : 55\nCodec ID/Hint                    : MP3\nDuration                         : 3mn 34s\nBit rate mode                    : Constant\nBit rate                         : 192 Kbps\nChannel(s)                       : 2 channels\nSampling rate                    : 44.1 KHz\nCompression mode                 : Lossy\nStream size                      : 4.92 MiB (6%)\n\n\n\nScreen :: \n &lt;a href=&quot;\nhttp://i.minus.com/iRQRItHD0DSqL.png&quot; rel=&quot;nofollow&quot; target=&quot;_NEW&quot;&gt;\nhttp://i.minus.com/iRQRItHD0DSqL.png&lt;/a&gt;\n &lt;a href=&quot;\nhttp://i.minus.com/ib0mTc0T69ynOp.png&quot; rel=&quot;nofollow&quot; target=&quot;_NEW&quot;&gt;\nhttp://i.minus.com/ib0mTc0T69ynOp.png&lt;/a&gt;\n &lt;a href=&quot;\nhttp://i.minus.com/iryvkraFoybFu.png&quot; rel=&quot;nofollow&quot; target=&quot;_NEW&quot;&gt;\nhttp://i.minus.com/iryvkraFoybFu.png&lt;/a&gt;\n &lt;a href=&quot;\nhttp://i.minus.com/im8Hxg0Gvxxgn.png&quot; rel=&quot;nofollow&quot; target=&quot;_NEW&quot;&gt;\nhttp://i.minus.com/im8Hxg0Gvxxgn.png&lt;/a&gt;\n &lt;a href=&quot;\nhttp://i.minus.com/idtrs2CPzxwrC.jpg&quot; rel=&quot;nofollow&quot; target=&quot;_NEW&quot;&gt;\nhttp://i.minus.com/idtrs2CPzxwrC.jpg&lt;/a&gt;","torrent":{"xt":"urn:btih:c4e742de4c371d319086449d64f842c31d22b77a","amp;dn":"Tere+Jeya+Sona+%28Breathless%29+-+Miss+Pooja+-+New+Punjabi+Album+-+7","amp;tr":["udp%3A%2F%2Ftracker.openbittorrent.com%3A80","udp%3A%2F%2Fopen.demonii.com%3A1337","udp%3A%2F%2Ftracker.coppersurfer.tk%3A6969","udp%3A%2F%2Fexodus.desync.com%3A6969"],"infoHash":"c4e742de4c371d319086449d64f842c31d22b77a","infoHashBuffer":{"type":"Buffer","data":[196,231,66,222,76,55,29,49,144,134,68,157,100,248,66,195,29,34,183,122]},"announce":[],"urlList":[]}}